<?xml version="1.0" encoding="iso-8859-1"?>
<!-- Generator: Adobe Illustrator 19.0.0, SVG Export Plug-In . SVG Version: 6.00 Build 0)  -->
<svg version="1.1" id="Capa_1" xmlns="http://www.w3.org/2000/svg" xmlns:xlink="http://www.w3.org/1999/xlink" x="0px" y="0px"
	 viewBox="0 0 512 512" style="enable-background:new 0 0 512 512;" xml:space="preserve">
<path style="fill:#495A79;" d="M436.901,154.75L256,178.149l-10.499,1.201l-29.702-86.7L243.1,59.651
	c3.9-4.501,8.101-8.701,12.9-12.001c12.9-9.6,28.5-15,45-15c22.5,0,43.5,9.901,57.9,27.299L436.901,154.75z"/>
<path style="fill:#42516D;" d="M436.901,154.75L256,178.149V47.65c12.9-9.6,28.5-15,45-15c22.5,0,43.5,9.901,57.9,27.299
	L436.901,154.75z"/>
<path style="fill:#6F7D96;" d="M285.7,176.051H76.3c-6.301-5.101-7.5-14.401-2.401-21l48.3-61.201
	c14.101-18,35.7-28.499,58.801-28.499s44.7,10.499,58.801,28.499L256,114.25l32.1,40.801C293.2,161.649,292,170.949,285.7,176.051z"
	/>
<path style="fill:#66728B;" d="M285.7,176.051H256v-61.802l32.1,40.801C293.2,161.649,292,170.949,285.7,176.051z"/>
<polygon style="fill:#F6B73C;" points="430.3,239.35 387.4,389.35 124.6,389.35 81.7,239.35 103.299,209.35 408.701,209.35 "/>
<polygon style="fill:#F29737;" points="430.3,239.35 387.4,389.35 256,389.35 256,209.35 408.701,209.35 "/>
<polygon style="fill:#EC9046;" points="450.399,168.551 430.3,239.35 81.7,239.35 61.601,168.551 "/>
<polygon style="fill:#E6733C;" points="450.399,168.551 430.3,239.35 256,239.35 256,168.551 "/>
<path style="fill:#BAC2CF;" d="M391,419.35H121c-16.569,0-30-13.431-30-30l0,0c0-16.569,13.431-30,30-30h270
	c16.569,0,30,13.431,30,30l0,0C421,405.919,407.569,419.35,391,419.35z"/>
<path style="fill:#ADB5C5;" d="M391,359.35H256v60h135c16.569,0,30-13.433,30-30C421,372.781,407.569,359.35,391,359.35z"/>
<path style="fill:#495A79;" d="M166,389.35c-24.901,0-45,20.099-45,45c0,24.899,20.099,45,45,45s45-20.101,45-45
	C211,409.45,190.901,389.35,166,389.35z"/>
<path style="fill:#42516D;" d="M211,434.35c0,24.899-20.099,45-45,45v-90C190.901,389.35,211,409.45,211,434.35z"/>
<path style="fill:#E0E4EC;" d="M166,419.35c-8.401,0-15,6.599-15,15c0,8.399,6.599,15,15,15s15-6.601,15-15
	C181,425.949,174.401,419.35,166,419.35z"/>
<path style="fill:#D1D7E3;" d="M181,434.35c0,8.399-6.599,15-15,15v-30C174.401,419.35,181,425.949,181,434.35z"/>
<path style="fill:#495A79;" d="M346,389.35c-24.901,0-45,20.099-45,45c0,24.899,20.099,45,45,45s45-20.101,45-45
	C391,409.45,370.901,389.35,346,389.35z"/>
<path style="fill:#42516D;" d="M391,434.35c0,24.899-20.099,45-45,45v-90C370.901,389.35,391,409.45,391,434.35z"/>
<path style="fill:#E0E4EC;" d="M346,419.35c-8.401,0-15,6.599-15,15c0,8.399,6.599,15,15,15s15-6.601,15-15
	C361,425.949,354.401,419.35,346,419.35z"/>
<path style="fill:#D1D7E3;" d="M361,434.35c0,8.399-6.599,15-15,15v-30C354.401,419.35,361,425.949,361,434.35z"/>
<path style="fill:#BAC2CF;" d="M481,164.35c0,8.399-6.599,15-15,15H46c-8.401,0-15-6.601-15-15c0-8.401,6.599-15,15-15h420
	C474.401,149.35,481,155.949,481,164.35z"/>
<path style="fill:#ADB5C5;" d="M481,164.35c0,8.399-6.599,15-15,15H256v-30h210C474.401,149.35,481,155.949,481,164.35z"/>
<g>
	<path style="fill:#42516D;" d="M497,479.35H15c-8.291,0-15-6.709-15-15s6.923-13.128,15-15h482c8.291,0,15,6.709,15,15
		S505.291,479.35,497,479.35z"/>
	<path style="fill:#42516D;" d="M497,449.35H256v30h241c8.291,0,15-6.709,15-15S505.291,449.35,497,449.35z"/>
</g>
<g>
</g>
<g>
</g>
<g>
</g>
<g>
</g>
<g>
</g>
<g>
</g>
<g>
</g>
<g>
</g>
<g>
</g>
<g>
</g>
<g>
</g>
<g>
</g>
<g>
</g>
<g>
</g>
<g>
</g>
</svg>
