<?xml version="1.0" encoding="iso-8859-1"?>
<!-- Generator: Adobe Illustrator 19.0.0, SVG Export Plug-In . SVG Version: 6.00 Build 0)  -->
<svg version="1.1" id="Capa_1" xmlns="http://www.w3.org/2000/svg" xmlns:xlink="http://www.w3.org/1999/xlink" x="0px" y="0px"
	 viewBox="0 0 512 512" style="enable-background:new 0 0 512 512;" xml:space="preserve">
<path style="fill:#FFAE39;" d="M512,255.997c0-19.497-12.758-34.688-24.015-48.09c-17.248-20.535-18.122-22.476-16.257-50.683
	c1.133-17.138,2.417-36.563-8.618-51.726c-11.139-15.306-30.113-20.08-46.854-24.292c-27.003-6.793-28.722-8.142-43.241-31.371
	c-9.213-14.74-19.655-31.447-37.894-37.369c-17.554-5.7-35.46,1.458-51.258,7.773c-26.458,10.577-29.266,10.578-55.727,0
	c-15.798-6.315-33.703-13.474-51.259-7.773c-18.239,5.922-28.681,22.629-37.894,37.369c-14.514,23.222-16.231,24.576-43.241,31.371
	c-16.741,4.212-35.715,8.986-46.854,24.292c-11.036,15.163-9.751,34.588-8.618,51.726c1.858,28.107,1.097,30.022-16.257,50.683
	C12.758,221.309,0,236.5,0,255.997s12.758,34.687,24.015,48.09c17.248,20.535,18.122,22.476,16.257,50.683
	c-1.133,17.138-2.417,36.563,8.618,51.726c11.139,15.306,30.113,20.08,46.854,24.292c27.003,6.793,28.722,8.142,43.241,31.371
	c9.213,14.74,19.655,31.447,37.894,37.369c17.554,5.7,35.46-1.458,51.258-7.773c26.458-10.577,29.266-10.578,55.727,0
	c16.568,6.624,33.989,13.382,51.259,7.773c18.239-5.922,28.681-22.629,37.894-37.369c14.514-23.222,16.231-24.576,43.241-31.371
	c16.741-4.212,35.715-8.986,46.854-24.292c11.036-15.163,9.751-34.588,8.618-51.726c-1.858-28.107-1.097-30.022,16.257-50.683
	C499.242,290.684,512,275.494,512,255.997z"/>
<path style="fill:#FC9D26;" d="M512,255.997c0-19.497-12.758-34.688-24.015-48.09c-17.248-20.535-18.122-22.476-16.257-50.683
	c1.133-17.138,2.417-36.563-8.618-51.726c-11.139-15.306-30.113-20.08-46.854-24.292c-27.003-6.793-28.722-8.142-43.241-31.371
	c-9.213-14.74-19.655-31.447-37.894-37.369c-17.554-5.7-35.46,1.458-51.258,7.773c-13.23,5.289-20.546,7.933-27.863,7.933V483.82
	c7.317,0,14.634,2.644,27.863,7.933c16.568,6.624,33.989,13.382,51.259,7.773c18.239-5.922,28.681-22.629,37.894-37.369
	c14.514-23.222,16.231-24.576,43.241-31.371c16.741-4.212,35.715-8.986,46.854-24.292c11.036-15.163,9.751-34.588,8.618-51.726
	c-1.858-28.107-1.097-30.022,16.257-50.683C499.242,290.684,512,275.494,512,255.997z"/>
<g>
	<circle style="fill:#F88D13;" cx="256" cy="256" r="20"/>
	<circle style="fill:#F88D13;" cx="174.37" cy="303.13" r="20"/>
	<circle style="fill:#F88D13;" cx="174.37" cy="208.87" r="20"/>
	<circle style="fill:#F88D13;" cx="256" cy="161.74" r="20"/>
	<circle style="fill:#F88D13;" cx="256" cy="350.26" r="20"/>
</g>
<g>
	<path style="fill:#F57C00;" d="M256,235.997v40c11.046,0,20-8.954,20-20C276,244.951,267.046,235.997,256,235.997z"/>
	<circle style="fill:#F57C00;" cx="337.63" cy="303.13" r="20"/>
	<circle style="fill:#F57C00;" cx="337.63" cy="208.87" r="20"/>
	<path style="fill:#F57C00;" d="M256,141.737v40c11.046,0,20-8.954,20-20S267.046,141.737,256,141.737z"/>
	<path style="fill:#F57C00;" d="M256,330.256v40c11.046,0,20-8.954,20-20S267.046,330.256,256,330.256z"/>
</g>
<g>
</g>
<g>
</g>
<g>
</g>
<g>
</g>
<g>
</g>
<g>
</g>
<g>
</g>
<g>
</g>
<g>
</g>
<g>
</g>
<g>
</g>
<g>
</g>
<g>
</g>
<g>
</g>
<g>
</g>
</svg>
