<?xml version="1.0" encoding="iso-8859-1"?>
<!-- Generator: Adobe Illustrator 19.0.0, SVG Export Plug-In . SVG Version: 6.00 Build 0)  -->
<svg version="1.1" id="Layer_1" xmlns="http://www.w3.org/2000/svg" xmlns:xlink="http://www.w3.org/1999/xlink" x="0px" y="0px"
	 viewBox="0 0 496.246 496.246" style="enable-background:new 0 0 496.246 496.246;" xml:space="preserve">
<g>
	<path style="fill:#33545B;" d="M391.01,473.765h-1.512L351.09,293.809c2.725-0.236,4.899-2.458,4.899-5.254
		c0-1.339-0.52-2.513-1.339-3.458c0.016-0.016,0.032-0.016,0.032-0.016s-0.071-0.063-0.087-0.087
		c-0.41-0.433-0.874-0.772-1.394-1.063c-0.118-0.063-0.221-0.181-0.354-0.26c-0.693-0.291-1.434-0.488-2.206-0.488h-64.37
		c-0.788,0-1.536,0.189-2.213,0.488c-0.158,0.079-0.244,0.197-0.394,0.284c-0.496,0.291-0.961,0.622-1.339,1.04
		c-0.032,0.039-0.079,0.055-0.079,0.055s0,0.032,0.008,0.039c-0.811,0.953-1.339,2.127-1.339,3.466c0,2.796,2.158,5.025,4.907,5.254
		l-38.424,179.956h-1.505c-4.364,0-7.893,3.521-7.893,7.885c0,4.348,3.537,7.885,7.893,7.885h28.719H391.01
		c4.372,0,7.908-3.537,7.908-7.885C398.919,477.286,395.374,473.765,391.01,473.765z"/>
	<path style="fill:#33545B;" d="M487.503,473.765h-1.52l-38.408-179.956c2.733-0.236,4.907-2.458,4.907-5.254
		c0-1.339-0.528-2.513-1.339-3.458c0.008-0.016,0.024-0.016,0.024-0.016c-0.016-0.032-0.079-0.063-0.095-0.087
		c-0.386-0.433-0.866-0.772-1.386-1.063c-0.118-0.063-0.213-0.181-0.347-0.26c-0.701-0.291-1.426-0.488-2.221-0.488H382.74
		c-0.78,0-1.52,0.189-2.198,0.488c-0.15,0.079-0.252,0.197-0.41,0.284c-0.496,0.291-0.961,0.622-1.331,1.04
		c-0.032,0.039-0.087,0.055-0.118,0.079c0.016,0.008,0.032,0.008,0.047,0.016c-0.819,0.953-1.339,2.127-1.339,3.466
		c0,2.796,2.166,5.025,4.907,5.254l-38.408,179.956h-1.52c-4.356,0-7.893,3.521-7.893,7.885c0,4.348,3.545,7.885,7.893,7.885h28.719
		h108.717c4.372,0,3.387-3.537,3.387-7.885C483.186,477.286,491.859,473.765,487.503,473.765z"/>
</g>
<polygon style="fill:#68AFB5;" points="299.544,465.967 220.483,95.768 95.949,95.768 16.888,465.967 "/>
<polyline style="fill:#8BCFD1;" points="95.949,95.768 16.888,465.967 68.876,465.967 "/>
<polyline style="fill:#519096;" points="299.544,465.967 220.483,95.768 95.949,95.768 "/>
<path style="fill:#68AFB5;" d="M232.038,94.318c0,5.821-4.718,10.539-10.531,10.539H94.925c-5.829,0-10.539-4.718-10.539-10.539l0,0
	c0-5.837,4.718-10.555,10.539-10.555h126.574C227.32,83.763,232.038,88.481,232.038,94.318L232.038,94.318z"/>
<path style="fill:#85C7C9;" d="M221.499,83.763H94.925c-3.214,0-6.049,1.465-7.979,3.734c1.938,2.253,4.766,3.718,7.979,3.718
	h126.574c3.206,0,6.049-1.473,7.979-3.718C227.549,85.22,224.705,83.763,221.499,83.763z"/>
<path style="fill:#68AFB5;" d="M496.246,474.025c0,8.57-6.947,15.51-15.51,15.51H15.51c-8.562,0-15.51-6.94-15.51-15.51l0,0
	c0-8.562,6.947-15.502,15.51-15.502h465.227C489.299,458.516,496.246,465.455,496.246,474.025L496.246,474.025z"/>
<path style="fill:#8BCFD1;" d="M87.473,474.025c0-8.562-6.932-15.502-15.494-15.502H15.51C6.947,458.516,0,465.455,0,474.025
	s6.947,15.51,15.51,15.51h56.47C80.549,489.535,87.473,482.595,87.473,474.025z"/>
<polygon style="fill:#FF7C24;" points="69.096,221.499 247.335,221.499 236.733,171.867 79.699,171.867 "/>
<polygon style="fill:#FFA727;" points="86.749,221.499 90.38,171.867 79.699,171.867 76.532,186.652 69.096,221.499 "/>
<polygon style="fill:#DD5B03;" points="165.092,221.499 247.335,221.499 239.9,186.652 236.733,171.867 137.791,171.867 "/>
<g>
	<path style="fill:#8BCFD1;" d="M302.497,228.462c-17.124,0-31.043-13.934-31.043-31.043s13.926-31.043,31.043-31.043v5.916
		c-13.855,0-25.135,11.272-25.135,25.127s11.28,25.135,25.135,25.135V228.462z"/>
	<path style="fill:#8BCFD1;" d="M293.628,267.634v-5.908c13.855,0,25.127-11.272,25.127-25.135
		c0-13.856-11.272-25.127-25.127-25.127v-5.908c17.117,0,31.035,13.926,31.035,31.035
		C324.663,253.708,310.745,267.634,293.628,267.634z"/>
	<path style="fill:#8BCFD1;" d="M350.878,228.462c-17.124,0-31.043-13.934-31.043-31.043s13.926-31.043,31.043-31.043v5.916
		c-13.855,0-25.135,11.272-25.135,25.127s11.28,25.135,25.135,25.135V228.462z"/>
	<path style="fill:#8BCFD1;" d="M342.008,267.634v-5.908c13.84,0,25.12-11.272,25.12-25.135c0-13.856-11.28-25.127-25.12-25.127
		v-5.908c17.109,0,31.035,13.926,31.035,31.035C373.043,253.708,359.125,267.634,342.008,267.634z"/>
	<path style="fill:#8BCFD1;" d="M399.258,228.462c-17.117,0-31.043-13.934-31.043-31.043s13.926-31.043,31.043-31.043v5.916
		c-13.855,0-25.135,11.272-25.135,25.127s11.28,25.135,25.135,25.135L399.258,228.462L399.258,228.462z"/>
	<path style="fill:#8BCFD1;" d="M390.388,267.634v-5.908c13.855,0,25.12-11.272,25.12-25.135c0-13.856-11.264-25.127-25.12-25.127
		v-5.908c17.109,0,31.035,13.926,31.035,31.035C421.423,253.708,407.497,267.634,390.388,267.634z"/>
	<path style="fill:#8BCFD1;" d="M447.638,228.462c-17.124,0-31.043-13.934-31.043-31.043s13.926-31.043,31.043-31.043v5.916
		c-13.855,0-25.135,11.272-25.135,25.127s11.28,25.135,25.135,25.135L447.638,228.462L447.638,228.462z"/>
	<path style="fill:#8BCFD1;" d="M438.768,267.634v-5.908c13.848,0,25.127-11.272,25.127-25.135c0-13.856-11.28-25.127-25.127-25.127
		v-5.908c17.117,0,31.035,13.926,31.035,31.035C469.803,253.708,455.877,267.634,438.768,267.634z"/>
	<path style="fill:#8BCFD1;" d="M105.48,64.165c0,2.442-1.977,4.427-4.419,4.427l0,0c-2.45,0-4.427-1.977-4.427-4.427V11.138
		c0-2.45,1.969-4.427,4.427-4.427l0,0c2.434,0,4.419,1.969,4.419,4.427V64.165z"/>
	<path style="fill:#8BCFD1;" d="M133.27,64.165c0,2.442-1.977,4.427-4.427,4.427l0,0c-2.442,0-4.427-1.977-4.427-4.427V11.138
		c0-2.45,1.977-4.427,4.427-4.427l0,0c2.442,0,4.427,1.969,4.427,4.427V64.165z"/>
	<path style="fill:#8BCFD1;" d="M161.052,64.165c0,2.442-1.977,4.427-4.427,4.427l0,0c-2.434,0-4.419-1.977-4.419-4.427V11.138
		c0-2.45,1.977-4.427,4.419-4.427l0,0c2.45,0,4.427,1.969,4.427,4.427V64.165z"/>
	<path style="fill:#8BCFD1;" d="M188.841,64.165c0,2.442-1.969,4.427-4.419,4.427l0,0c-2.442,0-4.427-1.977-4.427-4.427V11.138
		c0-2.45,1.977-4.427,4.427-4.427l0,0c2.442,0,4.419,1.969,4.419,4.427V64.165z"/>
	<path style="fill:#8BCFD1;" d="M216.623,64.165c0,2.442-1.969,4.427-4.427,4.427l0,0c-2.434,0-4.419-1.977-4.419-4.427V11.138
		c0-2.45,1.977-4.427,4.419-4.427l0,0c2.45,0,4.427,1.969,4.427,4.427V64.165z"/>
</g>
<g>
</g>
<g>
</g>
<g>
</g>
<g>
</g>
<g>
</g>
<g>
</g>
<g>
</g>
<g>
</g>
<g>
</g>
<g>
</g>
<g>
</g>
<g>
</g>
<g>
</g>
<g>
</g>
<g>
</g>
</svg>
